<svg width="30" height="30" viewBox="0 0 30 30" fill="none" xmlns="http://www.w3.org/2000/svg">
<path fill-rule="evenodd" clip-rule="evenodd" d="M18.8002 5.06437C20.0627 5.56688 20.449 7.31687 20.9652 7.87937C21.4815 8.44187 22.2202 8.63313 22.629 8.63313C24.8015 8.63313 26.5627 10.3944 26.5627 12.5656V19.8094C26.5627 22.7219 24.2002 25.0844 21.2877 25.0844H8.71274C5.79899 25.0844 3.43774 22.7219 3.43774 19.8094V12.5656C3.43774 10.3944 5.19899 8.63313 7.37149 8.63313C7.77899 8.63313 8.51774 8.44187 9.03524 7.87937C9.55149 7.31687 9.93649 5.56688 11.199 5.06437C12.4627 4.56187 17.5377 4.56187 18.8002 5.06437Z" stroke="#100F0F" stroke-width="1.5" stroke-linecap="round" stroke-linejoin="round"/>
<path d="M21.8694 11.875H21.8806" stroke="#100F0F" stroke-width="2" stroke-linecap="round" stroke-linejoin="round"/>
<path fill-rule="evenodd" clip-rule="evenodd" d="M18.9736 16.4103C18.9736 14.2153 17.1949 12.4365 14.9999 12.4365C12.8049 12.4365 11.0261 14.2153 11.0261 16.4103C11.0261 18.6053 12.8049 20.384 14.9999 20.384C17.1949 20.384 18.9736 18.6053 18.9736 16.4103Z" stroke="#100F0F" stroke-width="1.5" stroke-linecap="round" stroke-linejoin="round"/>
</svg>
