<svg width="20" height="20" viewBox="0 0 20 20" fill="none" xmlns="http://www.w3.org/2000/svg">
<path d="M13.6167 1.6665V1.1665H6.39175V1.6665V2.1665H13.6167V1.6665ZM6.39175 1.6665V1.1665C4.85786 1.1665 3.54109 1.70772 2.60879 2.68106C1.67828 3.65254 1.16675 5.01645 1.16675 6.59984H1.66675H2.16675C2.16675 5.23322 2.60522 4.13047 3.33096 3.37278C4.05491 2.61696 5.10064 2.1665 6.39175 2.1665V1.6665ZM1.66675 6.59984H1.16675V13.409H1.66675H2.16675V6.59984H1.66675ZM1.66675 13.409H1.16675C1.16675 14.9882 1.67853 16.3498 2.60902 17.32C3.54125 18.292 4.85788 18.8332 6.39175 18.8332V18.3332V17.8332C5.10061 17.8332 4.05474 17.3827 3.33073 16.6278C2.60497 15.8711 2.16675 14.7706 2.16675 13.409H1.66675ZM6.39175 18.3332V18.8332H13.6167V18.3332V17.8332H6.39175V18.3332ZM13.6167 18.3332V18.8332C15.1507 18.8332 16.4655 18.2919 17.3957 17.3195C18.3241 16.3492 18.8334 14.9876 18.8334 13.409H18.3334H17.8334C17.8334 14.7713 17.3969 15.8718 16.6732 16.6283C15.9513 17.3828 14.9078 17.8332 13.6167 17.8332V18.3332ZM18.3334 13.409H18.8334V6.59984H18.3334H17.8334V13.409H18.3334ZM18.3334 6.59984H18.8334C18.8334 5.01706 18.3244 3.65321 17.396 2.68152C16.4657 1.7078 15.1507 1.1665 13.6167 1.1665V1.6665V2.1665C14.9078 2.1665 15.9512 2.61688 16.6729 3.37232C17.3966 4.1298 17.8334 5.23261 17.8334 6.59984H18.3334Z" fill="black" fill-opacity="0.5"/>
</svg>
